<svg width="72" height="110" viewBox="0 0 72 110" fill="none" xmlns="http://www.w3.org/2000/svg">
<path d="M33.216 89.056C30.496 89.056 27.744 88.704 24.96 88C22.176 87.328 19.52 86.208 16.992 84.64C14.496 83.04 12.256 80.912 10.272 78.256C8.32 75.6 6.768 72.336 5.616 68.464C4.496 64.56 3.936 59.936 3.936 54.592C3.936 49.248 4.496 44.64 5.616 40.768C6.768 36.864 8.32 33.6 10.272 30.976C12.256 28.32 14.512 26.208 17.04 24.64C19.568 23.072 22.224 21.952 25.008 21.28C27.792 20.576 30.544 20.224 33.264 20.224C36.176 20.224 38.896 20.608 41.424 21.376C43.984 22.144 46.32 23.264 48.432 24.736C50.544 26.208 52.4 28.016 54 30.16C55.6 32.272 56.912 34.704 57.936 37.456L44.16 44.368C43.776 43.088 43.296 41.744 42.72 40.336C42.144 38.896 41.424 37.536 40.56 36.256C39.728 34.976 38.704 33.936 37.488 33.136C36.304 32.336 34.896 31.936 33.264 31.936C31.568 31.936 29.92 32.352 28.32 33.184C26.752 34.016 25.344 35.344 24.096 37.168C22.848 38.96 21.856 41.296 21.12 44.176C20.416 47.024 20.064 50.496 20.064 54.592C20.064 58.688 20.416 62.192 21.12 65.104C21.856 67.984 22.848 70.336 24.096 72.16C25.344 73.952 26.752 75.264 28.32 76.096C29.888 76.928 31.52 77.344 33.216 77.344C34.848 77.344 36.256 76.944 37.44 76.144C38.656 75.312 39.696 74.272 40.56 73.024C41.424 71.744 42.144 70.4 42.72 68.992C43.296 67.584 43.776 66.256 44.16 65.008L57.936 71.872C56.912 74.592 55.6 77.024 54 79.168C52.4 81.28 50.544 83.072 48.432 84.544C46.32 86.016 43.984 87.136 41.424 87.904C38.896 88.672 36.16 89.056 33.216 89.056Z" fill="white"/>
<path d="M23.75 73V38H37.875C38.825 38 39.8417 38.0917 40.925 38.275C42.025 38.4583 43.0917 38.7667 44.125 39.2C45.1583 39.6333 46.0917 40.2417 46.925 41.025C47.775 41.7917 48.45 42.7667 48.95 43.95C49.4667 45.1333 49.725 46.5667 49.725 48.25C49.725 50.1 49.4417 51.6583 48.875 52.925C48.3083 54.175 47.5667 55.1917 46.65 55.975C45.75 56.7583 44.75 57.3583 43.65 57.775C42.5667 58.1917 41.4833 58.475 40.4 58.625C39.3167 58.7583 38.35 58.825 37.5 58.825H32V73H23.75ZM41.575 73L35.525 56.675L43.6 55.825L50.325 73H41.575ZM32 53.075H36.125C37.1917 53.075 38.125 52.925 38.925 52.625C39.725 52.325 40.35 51.8417 40.8 51.175C41.2667 50.5083 41.5 49.6167 41.5 48.5C41.5 47.3167 41.2667 46.4083 40.8 45.775C40.35 45.125 39.7167 44.675 38.9 44.425C38.0833 44.1583 37.1417 44.025 36.075 44.025H32V53.075Z" fill="white"/>
</svg>
